<?xml version="1.0" standalone="no"?>
<!DOCTYPE svg PUBLIC "-//W3C//DTD SVG 20010904//EN"
 "http://www.w3.org/TR/2001/REC-SVG-20010904/DTD/svg10.dtd">
<svg version="1.0" xmlns="http://www.w3.org/2000/svg"
 width="1280.000000pt" height="1116.000000pt" viewBox="0 0 1280.000000 1116.000000"
 preserveAspectRatio="xMidYMid meet">
<g transform="translate(0.000000,1116.000000) scale(0.100000,-0.100000)"
fill="#000000" stroke="none">
<path d="M5705 11144 c-344 -19 -530 -33 -735 -55 -1941 -209 -3435 -960
-4265 -2145 -370 -526 -602 -1155 -669 -1807 -26 -252 -39 -455 -33 -524 45
-541 180 -934 473 -1373 692 -1038 2173 -1940 4109 -2503 1129 -329 2334 -512
3560 -540 l90 -2 266 -1063 c147 -584 272 -1069 279 -1077 7 -9 26 -25 42 -37
29 -20 30 -20 69 -2 22 10 47 30 54 45 8 15 134 505 280 1090 146 585 271
1069 277 1077 7 7 39 27 72 44 199 100 604 358 892 569 762 557 1512 1278
1777 1707 228 368 411 919 496 1497 49 328 70 642 53 798 -6 56 -16 152 -23
212 -178 1753 -1715 3184 -4067 3786 -542 139 -1167 238 -1747 279 -583 40
-864 46 -1250 24z m895 -204 c1339 -62 2490 -330 3476 -809 1021 -497 1763
-1177 2165 -1984 346 -697 430 -1409 268 -2262 -75 -397 -177 -718 -324 -1020
-114 -235 -233 -403 -467 -655 -615 -666 -1560 -1407 -2256 -1770 -57 -30
-114 -66 -126 -81 -18 -21 -70 -213 -241 -900 -120 -481 -222 -878 -226 -883
-5 -5 -11 -7 -15 -3 -3 3 -105 400 -225 883 -121 482 -224 885 -230 896 -21
39 -68 48 -246 48 -472 0 -1189 60 -1753 145 -2029 309 -3843 1026 -4990 1975
-160 132 -480 453 -594 595 -352 441 -549 891 -597 1365 -14 135 -6 439 16
640 125 1158 751 2136 1800 2812 856 552 1978 889 3285 989 378 28 906 36
1280 19z"/>
</g>
</svg>
